<svg width="145" height="17" xmlns="http://www.w3.org/2000/svg"><g fill="none" fill-rule="evenodd"><path d="M5.88 13.224c-.97 0-1.857-.229-2.66-.686a4.968 4.968 0 0 1-1.89-1.89 5.279 5.279 0 0 1-.686-2.66c0-.97.229-1.857.686-2.66a4.968 4.968 0 0 1 1.89-1.89 5.279 5.279 0 0 1 2.66-.686c.756 0 1.444.14 2.065.42.62.28 1.169.686 1.645 1.218L8.47 5.468a3.45 3.45 0 0 0-1.148-.917c-.42-.2-.9-.301-1.442-.301a3.73 3.73 0 0 0-1.841.462 3.428 3.428 0 0 0-1.323 1.309c-.327.565-.49 1.22-.49 1.967 0 .747.163 1.402.49 1.967a3.428 3.428 0 0 0 1.323 1.309 3.732 3.732 0 0 0 1.841.462c1.12 0 2.072-.467 2.856-1.4l1.134 1.092a5.105 5.105 0 0 1-1.75 1.33 5.24 5.24 0 0 1-2.24.476zm8.704 0c-.719 0-1.363-.166-1.932-.497a3.495 3.495 0 0 1-1.33-1.365 3.95 3.95 0 0 1-.476-1.932c0-.71.159-1.353.476-1.932a3.495 3.495 0 0 1 1.33-1.365c.57-.331 1.213-.497 1.932-.497.719 0 1.363.168 1.932.504.57.336 1.013.793 1.33 1.372.317.579.476 1.218.476 1.918a3.95 3.95 0 0 1-.476 1.932 3.495 3.495 0 0 1-1.33 1.365c-.57.331-1.213.497-1.932.497zm0-1.414a2.17 2.17 0 0 0 1.092-.287 2.11 2.11 0 0 0 .805-.826c.2-.36.301-.782.301-1.267 0-.485-.1-.905-.301-1.26a2.122 2.122 0 0 0-.805-.819 2.17 2.17 0 0 0-1.092-.287 2.17 2.17 0 0 0-1.092.287 2.122 2.122 0 0 0-.805.819c-.2.355-.301.775-.301 1.26s.1.908.301 1.267c.2.36.469.635.805.826.336.191.7.287 1.092.287zm5.162-5.95h1.47v.938h.07a2.41 2.41 0 0 1 .91-.84 2.583 2.583 0 0 1 1.26-.322c.513 0 .961.119 1.344.357.383.238.658.553.826.945.243-.392.567-.707.973-.945s.884-.357 1.435-.357c.821 0 1.444.25 1.869.749.425.5.637 1.178.637 2.037V13H29V8.688c0-1.083-.462-1.624-1.386-1.624-.495 0-.9.2-1.218.602-.317.401-.476.896-.476 1.484V13h-1.54V8.688c0-1.083-.476-1.624-1.428-1.624-.485 0-.884.2-1.197.602-.313.401-.469.896-.469 1.484V13h-1.54V5.86zm12.638 0h1.47v.938h.07c.205-.327.509-.602.91-.826a2.738 2.738 0 0 1 1.358-.336c.644 0 1.227.163 1.75.49.523.327.936.777 1.239 1.351.303.574.455 1.225.455 1.953s-.152 1.379-.455 1.953a3.467 3.467 0 0 1-1.239 1.351 3.235 3.235 0 0 1-1.75.49c-.504 0-.957-.112-1.358-.336-.401-.224-.705-.495-.91-.812h-.07l.07.994v2.954h-1.54V5.86zm3.584 5.95c.373 0 .723-.098 1.05-.294a2.13 2.13 0 0 0 .784-.84c.196-.364.294-.78.294-1.246 0-.467-.098-.88-.294-1.239a2.144 2.144 0 0 0-.784-.833 2.006 2.006 0 0 0-2.093 0 2.162 2.162 0 0 0-.777.833c-.196.36-.294.772-.294 1.239 0 .467.098.882.294 1.246.196.364.455.644.777.84.322.196.67.294 1.043.294zm5.148-5.95h1.47v1.05h.07c.159-.364.434-.665.826-.903a2.362 2.362 0 0 1 1.246-.357c.345 0 .635.047.868.14v1.596c-.41-.15-.78-.224-1.106-.224-.355 0-.67.093-.945.28a1.955 1.955 0 0 0-.651.749 2.24 2.24 0 0 0-.238 1.029V13h-1.54V5.86zm8.648 7.364c-.7 0-1.328-.163-1.883-.49a3.453 3.453 0 0 1-1.302-1.351c-.313-.574-.469-1.22-.469-1.939 0-.681.152-1.314.455-1.897a3.578 3.578 0 0 1 1.267-1.393c.541-.345 1.157-.518 1.848-.518.719 0 1.342.159 1.869.476.527.317.929.751 1.204 1.302.275.55.413 1.171.413 1.862 0 .13-.014.294-.042.49H47.65c.056.663.292 1.174.707 1.533.415.36.898.539 1.449.539.439 0 .819-.1 1.141-.301.322-.2.581-.474.777-.819l1.302.616a3.836 3.836 0 0 1-1.316 1.386c-.541.336-1.19.504-1.946.504zm1.834-4.634a1.78 1.78 0 0 0-.238-.749 1.703 1.703 0 0 0-.637-.623c-.285-.168-.632-.252-1.043-.252-.495 0-.912.147-1.253.441-.34.294-.576.688-.707 1.183h3.878zm9.848 4.634c-.71 0-1.346-.163-1.911-.49a3.424 3.424 0 0 1-1.316-1.351c-.313-.574-.469-1.225-.469-1.953s.156-1.379.469-1.953a3.424 3.424 0 0 1 1.316-1.351c.565-.327 1.202-.49 1.911-.49.784 0 1.451.177 2.002.532.55.355.943.835 1.176 1.442l-1.414.588c-.317-.756-.92-1.134-1.806-1.134-.383 0-.735.098-1.057.294a2.112 2.112 0 0 0-.77.833c-.191.36-.287.772-.287 1.239 0 .467.096.882.287 1.246a2.1 2.1 0 0 0 .77.84c.322.196.674.294 1.057.294.448 0 .833-.1 1.155-.301.322-.2.567-.488.735-.861l1.386.602a3.255 3.255 0 0 1-1.232 1.442c-.55.355-1.218.532-2.002.532zm7.976 0c-.719 0-1.363-.166-1.932-.497a3.495 3.495 0 0 1-1.33-1.365 3.95 3.95 0 0 1-.476-1.932c0-.71.159-1.353.476-1.932a3.495 3.495 0 0 1 1.33-1.365c.57-.331 1.213-.497 1.932-.497.719 0 1.363.168 1.932.504.57.336 1.013.793 1.33 1.372.317.579.476 1.218.476 1.918a3.95 3.95 0 0 1-.476 1.932 3.495 3.495 0 0 1-1.33 1.365c-.57.331-1.213.497-1.932.497zm0-1.414a2.17 2.17 0 0 0 1.092-.287 2.11 2.11 0 0 0 .805-.826c.2-.36.301-.782.301-1.267 0-.485-.1-.905-.301-1.26a2.122 2.122 0 0 0-.805-.819 2.17 2.17 0 0 0-1.092-.287 2.17 2.17 0 0 0-1.092.287 2.122 2.122 0 0 0-.805.819c-.2.355-.301.775-.301 1.26s.1.908.301 1.267c.2.36.469.635.805.826.336.191.7.287 1.092.287zm5.162-5.95h1.47v.938h.07a2.41 2.41 0 0 1 .91-.84 2.583 2.583 0 0 1 1.26-.322c.513 0 .961.119 1.344.357.383.238.658.553.826.945.243-.392.567-.707.973-.945s.884-.357 1.435-.357c.821 0 1.444.25 1.869.749.425.5.637 1.178.637 2.037V13h-1.54V8.688c0-1.083-.462-1.624-1.386-1.624-.495 0-.9.2-1.218.602-.317.401-.476.896-.476 1.484V13h-1.54V8.688c0-1.083-.476-1.624-1.428-1.624-.485 0-.884.2-1.197.602-.313.401-.469.896-.469 1.484V13h-1.54V5.86zm19.466 7.364c-.719 0-1.363-.166-1.932-.497a3.495 3.495 0 0 1-1.33-1.365 3.95 3.95 0 0 1-.476-1.932c0-.71.159-1.353.476-1.932a3.495 3.495 0 0 1 1.33-1.365c.57-.331 1.213-.497 1.932-.497.719 0 1.363.168 1.932.504.57.336 1.013.793 1.33 1.372.317.579.476 1.218.476 1.918a3.95 3.95 0 0 1-.476 1.932 3.495 3.495 0 0 1-1.33 1.365c-.57.331-1.213.497-1.932.497zm0-1.414a2.17 2.17 0 0 0 1.092-.287 2.11 2.11 0 0 0 .805-.826c.2-.36.301-.782.301-1.267 0-.485-.1-.905-.301-1.26a2.122 2.122 0 0 0-.805-.819 2.17 2.17 0 0 0-1.092-.287 2.17 2.17 0 0 0-1.092.287 2.122 2.122 0 0 0-.805.819c-.2.355-.301.775-.301 1.26s.1.908.301 1.267c.2.36.469.635.805.826.336.191.7.287 1.092.287z" fill="#3C4043"/><path d="M123.526 2.635v4.083h2.518c.6 0 1.096-.202 1.488-.605.403-.402.605-.882.605-1.437 0-.544-.202-1.018-.605-1.422-.392-.413-.888-.62-1.488-.62h-2.518zm0 5.52v4.736h-1.504V1.198h3.99c1.013 0 1.873.337 2.582 1.012.72.675 1.08 1.497 1.08 2.466 0 .991-.36 1.819-1.08 2.482-.697.665-1.559.996-2.583.996h-2.485v.001zm7.668 2.287c0 .392.166.718.499.98.332.26.722.391 1.168.391.633 0 1.196-.234 1.692-.701.497-.469.744-1.019.744-1.65-.469-.37-1.123-.555-1.962-.555-.61 0-1.12.148-1.528.442-.409.294-.613.657-.613 1.093m1.946-5.815c1.112 0 1.989.297 2.633.89.642.594.964 1.408.964 2.442v4.932h-1.439v-1.11h-.065c-.622.914-1.45 1.372-2.486 1.372-.882 0-1.621-.262-2.215-.784-.594-.523-.891-1.176-.891-1.96 0-.828.313-1.486.94-1.976s1.463-.735 2.51-.735c.892 0 1.629.163 2.206.49v-.344c0-.522-.207-.966-.621-1.33a2.132 2.132 0 0 0-1.455-.547c-.84 0-1.504.353-1.995 1.062l-1.324-.834c.73-1.045 1.81-1.568 3.238-1.568m11.853.262l-5.02 11.53h-1.553l1.864-4.034-3.302-7.496h1.635l2.387 5.749h.032l2.322-5.75z" fill="#5F6368"/><path d="M117.448 7.134c0-.473-.04-.93-.116-1.366h-6.344v2.588h3.634a3.11 3.11 0 0 1-1.344 2.042v1.68h2.169c1.27-1.17 2.001-2.9 2.001-4.944" fill="#4285F4"/><path d="M110.988 13.7c1.816 0 3.344-.595 4.459-1.621l-2.169-1.681c-.603.406-1.38.643-2.29.643-1.754 0-3.244-1.182-3.776-2.774h-2.234v1.731a6.728 6.728 0 0 0 6.01 3.703" fill="#34A853"/><path d="M107.212 8.267a4.034 4.034 0 0 1 0-2.572V3.964h-2.234a6.678 6.678 0 0 0-.717 3.017c0 1.085.26 2.11.717 3.017l2.234-1.731z" fill="#FABB05"/><path d="M110.988 2.921c.992 0 1.88.34 2.58 1.008v.001l1.92-1.918c-1.165-1.084-2.685-1.75-4.5-1.75a6.728 6.728 0 0 0-6.01 3.702l2.234 1.731c.532-1.592 2.022-2.774 3.776-2.774" fill="#E94235"/></g></svg>
